<?xml version="1.0" encoding="utf-8"?>
<!-- generated at drububu.com  -->
<!DOCTYPE svg PUBLIC "-//W3C//DTD SVG 1.1//EN" "http://www.w3.org/Graphics/SVG/1.1/DTD/svg11.dtd">
<svg version="1.1" preserveAspectRatio="xMinYMin meet" xmlns="http://www.w3.org/2000/svg" xmlns:xlink="http://www.w3.org/1999/xlink" x="0px" y="0px" width="24px" height="24px" viewBox="0 0 24 24">
<path d="M0 0h9v1h-1v3h1v3h2v2h-2v1h-1v1h1v-1h2v4h-1v1h-1v1h-1v4h1v1h1v-1h-1v-2
	h1v1h1v1h2v2h1v1h1v-1h-1v-7h-1v-5h3v1h1v1h1v-1h-1v-1h-1v-1h-3v-2h2v-6h1v-1h8
	v24h-24z" fill="rgb(255,255,255)"/>
<path d="M9 0h5v2h1v5h-1v-3h-3v-1h-2v1h-1v-3h1z" fill="rgb(96,78,97)"/>
<path d="M14 0h2v1h-1v1h-1z" fill="rgb(225,98,143)"/>
<path d="M9 3h1v2h-1z" fill="rgb(73,116,105)"/>
<path d="M10 3h1v2h1v-1h2v1h-1v1h1v1h-1v1h-2v-1h-2v-2h1z" fill="rgb(255,236,225)"/>
<path d="M11 4h1v1h-1z" fill="rgb(73,116,105)"/>
<path d="M13 5h1v1h-1z" fill="rgb(249,216,123)"/>
<path d="M11 8h1v5h-1z" fill="rgb(243,166,178)"/>
<path d="M12 8h1v1h3v1h-3v3h-1z" fill="rgb(225,98,143)"/>
<path d="M9 9h2v1h-2z" fill="rgb(232,113,141)"/>
<path d="M8 10h1v1h-1z" fill="rgb(255,236,225)"/>
<path d="M16 10h1v1h-1z" fill="rgb(225,98,143)"/>
<path d="M17 11h1v1h-1z" fill="rgb(255,236,225)"/>
<path d="M11 13h2v1h-1v2h-1z" fill="rgb(114,155,111)"/>
<path d="M10 14h1v1h-1z" fill="rgb(213,207,60)"/>
<path d="M12 14h1v1h1v5h-3v-4h1z" fill="rgb(73,116,105)"/>
<path d="M9 15h1v1h1v3h-1v-1h-2v-2h1z" fill="rgb(114,155,111)"/>
<path d="M10 15h1v1h-1z" fill="rgb(73,116,105)"/>
<path d="M8 18h1v2h-1z" fill="rgb(91,122,162)"/>
<path d="M9 20h1v1h-1z" fill="rgb(91,122,162)"/>
<path d="M13 20h1v2h-1z" fill="rgb(47,71,129)"/>
<path d="M14 22h1v1h-1z" fill="rgb(47,71,129)"/>
</svg>
